<svg width="3638" height="1732" viewBox="0 0 3638 1732" fill="none" xmlns="http://www.w3.org/2000/svg">
<mask id="mask0_103_23" style="mask-type:luminance" maskUnits="userSpaceOnUse" x="378" y="345" width="2882" height="1042">
<path d="M3259.33 345H378V1386.33H3259.33V345Z" fill="white"/>
</mask>
<g mask="url(#mask0_103_23)">
<path d="M649.095 536.258C654.079 531.273 658.647 527.258 662.803 524.216C666.954 521.164 671.522 519.633 676.511 519.633C683.704 519.633 688.272 522.268 690.22 527.529C692.162 532.794 691.47 537.919 688.136 542.904C678.162 556.768 669.991 568.82 663.616 579.07C657.251 589.31 652.683 600.523 649.907 612.716C674.834 620.466 687.303 637.362 687.303 663.404C687.303 676.695 682.037 688.331 671.511 698.299C660.996 708.273 648.537 713.258 634.136 713.258C620.272 713.258 608.079 708.831 597.553 699.966C587.037 691.107 581.782 677.258 581.782 658.424C581.782 639.039 588.147 618.674 600.886 597.341C613.636 576.008 629.704 555.648 649.095 536.258ZM501.99 536.258C506.975 531.273 511.543 527.258 515.699 524.216C519.865 521.164 524.438 519.633 529.428 519.633C536.621 519.633 541.183 522.268 543.115 527.529C545.058 532.794 544.371 537.919 541.053 542.904C531.079 556.768 522.907 568.82 516.532 579.07C510.168 589.31 505.6 600.523 502.824 612.716C527.751 620.466 540.22 637.362 540.22 663.404C540.22 676.695 534.954 688.331 524.428 698.299C513.912 708.273 501.449 713.258 487.032 713.258C473.183 713.258 460.996 708.831 450.47 699.966C439.938 691.107 434.678 677.258 434.678 658.424C434.678 639.039 441.043 618.674 453.782 597.341C466.532 576.008 482.6 555.648 501.99 536.258Z" fill="white"/>
<path d="M1539.92 617.695V1166.99C1539.92 1175.31 1536.73 1182.37 1530.36 1188.17C1523.98 1193.99 1516.64 1196.9 1508.33 1196.9C1500.03 1196.9 1492.55 1193.99 1485.9 1188.17C1479.24 1182.37 1475.92 1175.31 1475.92 1166.99V617.695C1475.92 609.393 1479.11 602.19 1485.48 596.091C1491.86 589.997 1499.19 586.945 1507.5 586.945C1516.36 586.945 1523.98 589.997 1530.36 596.091C1536.73 602.19 1539.92 609.393 1539.92 617.695ZM893.397 599.424H1327.19C1335.49 599.424 1342.69 602.477 1348.77 608.57C1354.87 614.654 1357.92 621.857 1357.92 630.174C1357.92 637.924 1354.87 644.852 1348.77 650.945C1342.69 657.044 1335.49 660.091 1327.19 660.091H893.397C885.647 660.091 878.72 657.044 872.626 650.945C866.527 644.852 863.48 637.924 863.48 630.174C863.48 621.857 866.527 614.654 872.626 608.57C878.72 602.477 885.647 599.424 893.397 599.424ZM1110.29 680.862C1131.89 680.862 1149.33 687.508 1162.63 700.799C1175.93 714.091 1186.46 730.435 1194.21 749.82L1367.06 1150.36C1370.38 1157.57 1369.69 1165.06 1364.98 1172.82C1360.27 1180.57 1354.04 1185.83 1346.29 1188.59C1338.54 1191.37 1330.51 1190.81 1322.19 1186.92C1313.88 1183.05 1308.34 1177.51 1305.56 1170.32L1136.88 774.758C1134.11 767.008 1130.38 760.779 1125.67 756.07C1120.96 751.362 1115.83 749.008 1110.29 749.008C1104.75 749.008 1099.63 751.503 1094.92 756.487C1090.21 761.477 1086.46 767.565 1083.69 774.758L914.168 1172.8C911.402 1180.01 905.861 1185.55 897.543 1189.42C889.236 1193.3 881.209 1193.85 873.459 1191.09C866.251 1188.33 860.152 1183.07 855.168 1175.32C850.178 1167.56 849.345 1160.07 852.668 1152.86L1026.36 749.82C1034.12 730.435 1044.65 714.091 1057.94 700.799C1071.23 687.508 1088.68 680.862 1110.29 680.862Z" fill="white"/>
<path d="M2698.33 1196.9C2690.01 1196.9 2682.66 1193.85 2676.29 1187.76C2669.92 1181.67 2666.75 1174.48 2666.75 1166.15V616.862C2666.75 607.445 2669.92 600.107 2676.29 594.841C2682.66 589.581 2690.01 586.945 2698.33 586.945C2707.75 586.945 2715.5 589.581 2721.58 594.841C2727.67 600.107 2730.72 607.445 2730.72 616.862V1166.15C2730.72 1174.48 2727.67 1181.67 2721.58 1187.76C2715.5 1193.85 2707.75 1196.9 2698.33 1196.9ZM2538.77 1165.32V671.716C2538.77 663.966 2534.89 660.091 2527.14 660.091H2469.79C2461.48 660.091 2454.42 657.185 2448.6 651.362C2442.78 645.544 2439.87 638.206 2439.87 629.341C2439.87 621.023 2442.78 613.961 2448.6 608.154C2454.42 602.336 2461.48 599.424 2469.79 599.424H2542.1C2560.38 599.424 2574.92 605.523 2585.72 617.716C2596.53 629.898 2601.93 645.128 2601.93 663.404V1165.32C2601.93 1174.2 2598.75 1181.67 2592.37 1187.76C2586 1193.85 2578.38 1196.9 2569.52 1196.9C2561.21 1196.9 2554.01 1193.85 2547.91 1187.76C2541.81 1181.67 2538.77 1174.2 2538.77 1165.32ZM2053.45 599.424H2383.37C2391.67 599.424 2398.88 602.195 2404.97 607.737C2411.07 613.268 2414.12 620.19 2414.12 628.508C2414.12 637.372 2411.07 644.711 2404.97 650.529C2398.88 656.352 2391.67 659.258 2383.37 659.258H2053.45C2044.59 659.258 2037.25 656.352 2031.43 650.529C2025.63 644.711 2022.72 637.372 2022.72 628.508C2022.72 620.19 2025.63 613.268 2031.43 607.737C2037.25 602.195 2044.59 599.424 2053.45 599.424ZM2441.54 1184.45H2045.16C2036.29 1184.45 2028.94 1181.26 2023.12 1174.88C2017.31 1168.51 2014.41 1161.17 2014.41 1152.86C2014.41 1144.56 2017.31 1137.63 2023.12 1132.09C2028.94 1126.55 2036.29 1123.78 2045.16 1123.78H2311.08V813.82C2311.08 806.612 2309.83 803.008 2307.33 803.008C2304.84 803.008 2301.93 806.612 2298.6 813.82L2185.6 1071.42C2180.06 1083.62 2171.88 1092.35 2161.08 1097.61C2150.27 1102.88 2139.19 1104.67 2127.83 1103.01C2116.48 1101.34 2106.92 1095.94 2099.16 1086.8C2091.41 1077.66 2087.54 1065.34 2087.54 1049.82V707.445C2087.54 699.695 2090.71 692.914 2097.08 687.091C2103.45 681.273 2111.08 678.362 2119.95 678.362C2127.7 678.362 2134.9 681.273 2141.54 687.091C2148.19 692.914 2151.52 699.695 2151.52 707.445V987.487C2151.52 994.695 2152.9 998.299 2155.66 998.299C2158.44 998.299 2161.21 994.695 2164 987.487L2281.16 713.258C2287.26 700.523 2295.42 691.383 2305.66 685.841C2315.91 680.299 2326.3 678.227 2336.83 679.612C2347.36 681.003 2356.36 685.852 2363.83 694.154C2371.31 702.461 2375.06 714.648 2375.06 730.716V1123.78H2441.54C2449.84 1123.78 2457.04 1126.69 2463.14 1132.51C2469.24 1138.33 2472.29 1145.39 2472.29 1153.7C2472.29 1162.56 2469.24 1169.9 2463.14 1175.72C2457.04 1181.53 2449.84 1184.45 2441.54 1184.45Z" fill="white"/>
<path d="M2949.27 713.258C2944.28 718.247 2939.71 722.268 2935.56 725.32C2931.4 728.362 2926.84 729.883 2921.85 729.883C2914.64 729.883 2910.06 727.253 2908.12 721.987C2906.19 716.727 2906.89 711.602 2910.23 706.612C2920.19 692.211 2928.5 680.023 2935.14 670.049C2941.79 660.081 2946.23 649.003 2948.43 636.82C2923.5 629.06 2911.04 612.164 2911.04 586.133C2911.04 572.831 2916.3 561.19 2926.83 551.216C2937.36 541.247 2949.82 536.258 2964.23 536.258C2978.09 536.258 2990.27 540.695 3000.79 549.57C3011.31 558.435 3016.58 572.279 3016.58 591.112C3016.58 610.503 3010.21 630.862 2997.46 652.195C2984.72 673.518 2968.65 693.872 2949.27 713.258ZM3096.37 713.258C3091.38 718.247 3086.81 722.268 3082.64 725.32C3078.49 728.362 3073.92 729.883 3068.93 729.883C3061.74 729.883 3057.17 727.253 3055.23 721.987C3053.28 716.727 3053.98 711.602 3057.31 706.612C3067.28 692.211 3075.59 680.023 3082.23 670.049C3088.88 660.081 3093.31 649.003 3095.54 636.82C3070.61 629.06 3058.14 612.164 3058.14 586.133C3058.14 572.831 3063.4 561.19 3073.91 551.216C3084.44 541.247 3096.9 536.258 3111.31 536.258C3125.17 536.258 3137.36 540.695 3147.87 549.57C3158.4 558.435 3163.66 572.279 3163.66 591.112C3163.66 610.503 3157.29 630.862 3144.56 652.195C3131.82 673.518 3115.76 693.872 3096.37 713.258Z" fill="white"/>
</g>
</svg>
